HIERARCHY
ROOT Hips
{
	OFFSET 0.00000 0.00000 0.00000
	CHANNELS 6 Xposition Yposition Zposition Zrotation Yrotation Xrotation 
	JOINT LHipJoint
	{
		OFFSET 0 0 0
		CHANNELS 3 Zrotation Yrotation Xrotation
		JOINT LeftUpLeg
		{
			OFFSET 1.80322 -1.53100 0.99595
			CHANNELS 3 Zrotation Yrotation Xrotation
			JOINT LeftLeg
			{
				OFFSET 2.25177 -6.18669 0.00000
				CHANNELS 3 Zrotation Yrotation Xrotation
				JOINT LeftFoot
				{
					OFFSET 2.26601 -6.22582 0.00000
					CHANNELS 3 Zrotation Yrotation Xrotation
					JOINT LeftToeBase
					{
						OFFSET 0.23701 -0.65119 2.15848
						CHANNELS 3 Zrotation Yrotation Xrotation
						End Site
						{
							OFFSET 0.00000 -0.00000 1.12949
						}
					}
				}
			}
		}
	}
	JOINT RHipJoint
	{
		OFFSET 0 0 0
		CHANNELS 3 Zrotation Yrotation Xrotation
		JOINT RightUpLeg
		{
			OFFSET -1.93977 -1.53100 0.99595
			CHANNELS 3 Zrotation Yrotation Xrotation
			JOINT RightLeg
			{
				OFFSET -2.28036 -6.26523 0.00000
				CHANNELS 3 Zrotation Yrotation Xrotation
				JOINT RightFoot
				{
					OFFSET -2.25490 -6.19528 0.00000
					CHANNELS 3 Zrotation Yrotation Xrotation
					JOINT RightToeBase
					{
						OFFSET -0.28375 -0.77960 2.23137
						CHANNELS 3 Zrotation Yrotation Xrotation
						End Site
						{
							OFFSET -0.00000 -0.00000 1.17899
						}
					}
				}
			}
		}
	}
	JOINT LowerBack
	{
		OFFSET 0 0 0
		CHANNELS 3 Zrotation Yrotation Xrotation
		JOINT Spine
		{
			OFFSET -0.00088 2.12090 -0.02806
			CHANNELS 3 Zrotation Yrotation Xrotation
			JOINT Spine1
			{
				OFFSET -0.00286 2.09666 0.12974
				CHANNELS 3 Zrotation Yrotation Xrotation
				JOINT Neck
				{
					OFFSET 0 0 0
					CHANNELS 3 Zrotation Yrotation Xrotation
					JOINT Neck1
					{
						OFFSET 0.07328 1.83526 0.07290
						CHANNELS 3 Zrotation Yrotation Xrotation
						JOINT Head
						{
							OFFSET -0.06683 1.74974 -0.49542
							CHANNELS 3 Zrotation Yrotation Xrotation
							End Site
							{
								OFFSET -0.03398 1.85163 -0.17573
							}
						}
					}
				}
				JOINT LeftShoulder
				{
					OFFSET 0 0 0
					CHANNELS 3 Zrotation Yrotation Xrotation
					JOINT LeftArm
					{
						OFFSET 3.02113 1.18018 0.40602
						CHANNELS 3 Zrotation Yrotation Xrotation
						JOINT LeftForeArm
						{
							OFFSET 4.58538 -0.00000 -0.00000
							CHANNELS 3 Zrotation Yrotation Xrotation
							JOINT LeftHand
							{
								OFFSET 2.68935 -0.00000 -0.00000
								CHANNELS 3 Zrotation Yrotation Xrotation
								JOINT LeftFingerBase
								{
									OFFSET 0 0 0
									CHANNELS 3 Zrotation Yrotation Xrotation
									JOINT LeftHandIndex1
									{
										OFFSET 0.58506 -0.00000 -0.00000
										CHANNELS 3 Zrotation Yrotation Xrotation
										End Site
										{
											OFFSET 0.47169 -0.00000 -0.00000
										}
									}
								}
								JOINT LThumb
								{
									OFFSET 0 0 0
									CHANNELS 3 Zrotation Yrotation Xrotation
									End Site
									{
										OFFSET 0.47889 -0.00000 0.47889
									}
								}
							}
						}
					}
				}
				JOINT RightShoulder
				{
					OFFSET 0 0 0
					CHANNELS 3 Zrotation Yrotation Xrotation
					JOINT RightArm
					{
						OFFSET -2.95074 1.18843 0.31430
						CHANNELS 3 Zrotation Yrotation Xrotation
						JOINT RightForeArm
						{
							OFFSET -4.47450 -0.00000 -0.00000
							CHANNELS 3 Zrotation Yrotation Xrotation
							JOINT RightHand
							{
								OFFSET -2.93896 -0.00000 -0.00000
								CHANNELS 3 Zrotation Yrotation Xrotation
								JOINT RightFingerBase
								{
									OFFSET 0 0 0
									CHANNELS 3 Zrotation Yrotation Xrotation
									JOINT RightHandIndex1
									{
										OFFSET -0.40509 -0.00000 -0.00000
										CHANNELS 3 Zrotation Yrotation Xrotation
										End Site
										{
											OFFSET -0.32660 -0.00000 -0.00000
										}
									}
								}
								JOINT RThumb
								{
									OFFSET 0 0 0
									CHANNELS 3 Zrotation Yrotation Xrotation
									End Site
									{
										OFFSET -0.33158 -0.00000 0.33158
									}
								}
							}
						}
					}
				}
			}
		}
	}
}
MOTION
Frames: 15
Frame Time: .0083333
-0.8586 14.9704 -4.0722 0 0 0 0 0 0 -21 0 0 0 0 0 0 0 0 0 0 0 0 0 0 21 0 0 0 0 0 0 0 0 0 0 0 0 0 0 0 0 0 0 0 0 0 0 -16 0 0 21 0 0 11 0 0 0 -8 0 0 0 0 0 0 0 0 0 0 0 0 0 0 0 0 0 0 0 0 8 0 0 0 0 0 0 0 0 0 0 0 0 0 0 0 0 0
-0.8586 14.9704 -4.0722 -3.4330 -20.4809 12.0036 0.0000 0.0000 0.0000 2.9785 -35.5689 -31.0784 4.5752 12.8888 38.9536 0.7301 25.5643 -39.6194 1.8585 8.5650 24.4438 0.0000 0.0000 0.0000 24.8624 8.3296 -9.2645 -3.4822 -11.4375 33.7698 -2.8330 -11.0100 -37.1041 -0.0057 -0.4869 1.3378 5.4476 -1.5479 -7.3165 1.7111 -2.3418 -6.9468 -1.3695 -1.3868 -3.2687 0.3996 -2.9355 -14.3181 -5.7236 -2.8218 31.6211 -2.7313 -2.0690 12.8109 -0.0000 0.0000 0.0000 -79.1731 20.9349 34.9978 139.3164 -48.4697 -101.0506 -0.0000 -0.0000 16.0160 -18.0128 11.5990 -3.7406 -7.1250 0.0000 -0.0000 -37.5286 38.5940 7.1781 -0.0000 0.0000 0.0000 71.6397 -13.8337 43.8792 -135.2630 50.6390 -97.9647 0.0000 0.0000 7.5217 22.1827 -12.0740 -4.8749 7.1250 -0.0000 -0.0000 40.5999 -38.4894 8.2165
-0.8625 14.9706 -4.0742 -3.4296 -20.5214 12.0000 0.0000 0.0000 0.0000 2.9889 -35.5818 -31.0473 4.5750 12.8885 38.9527 0.7498 25.5466 -39.6921 1.8644 8.5776 24.4828 0.0000 0.0000 0.0000 24.8606 8.3047 -9.2858 -3.4837 -11.4398 33.7777 -2.8342 -10.9632 -37.0812 -0.0057 -0.4857 1.3345 5.4537 -1.5486 -7.3291 1.7005 -2.3446 -6.9300 -1.3849 -1.3879 -3.2450 0.3129 -2.9140 -14.3896 -5.5881 -2.8075 31.7838 -2.6711 -2.0564 12.8997 -0.0000 0.0000 0.0000 -79.0504 20.5337 34.8151 139.6179 -48.2946 -101.2760 -0.0000 -0.0000 15.5958 -17.6679 11.6099 -3.6678 -7.1250 0.0000 -0.0000 -37.2908 38.6422 7.0574 -0.0000 0.0000 0.0000 71.7313 -13.3171 43.5164 -135.5085 50.5169 -98.1544 0.0000 0.0000 7.0607 22.0445 -11.9655 -4.7988 7.1250 -0.0000 -0.0000 40.4545 -38.4168 8.2652
-0.8663 14.9701 -4.0764 -3.4608 -20.5510 12.0092 0.0000 0.0000 0.0000 3.0491 -35.6133 -31.0314 4.5790 12.8934 38.9708 0.7913 25.4788 -39.8084 1.8881 8.6291 24.6417 0.0000 0.0000 0.0000 24.9041 8.3006 -9.2855 -3.4817 -11.4368 33.7677 -2.8290 -10.9593 -37.0525 -0.0056 -0.4838 1.3294 5.4746 -1.5554 -7.3186 1.7178 -2.3534 -6.9392 -1.3783 -1.3934 -3.2615 0.1572 -2.8934 -14.4795 -5.4030 -2.7909 32.0600 -2.5848 -2.0454 13.0435 -0.0000 -0.0000 0.0000 -78.9441 20.1568 34.6573 139.9443 -48.1029 -101.5193 -0.0000 -0.0000 15.0658 -17.3575 11.6002 -3.5964 -7.1250 0.0000 -0.0000 -37.0665 38.6687 6.9665 -0.0000 -0.0000 0.0000 71.7110 -12.9012 43.2204 -135.8424 50.3490 -98.4118 0.0000 0.0000 6.5620 21.7279 -11.8290 -4.6702 7.1250 -0.0000 -0.0000 40.1775 -38.3433 8.2723
-0.8705 14.9694 -4.0777 -3.5043 -20.5957 12.0311 0.0000 0.0000 0.0000 3.1247 -35.6393 -31.0154 4.5824 12.8975 38.9858 0.8229 25.4499 -39.9231 1.9036 8.6622 24.7443 0.0000 0.0000 0.0000 24.9549 8.3075 -9.2960 -3.4804 -11.4348 33.7606 -2.8324 -10.9174 -37.0440 -0.0058 -0.4900 1.3466 5.5375 -1.5427 -7.3613 1.7014 -2.3430 -6.9368 -1.4313 -1.3908 -3.2386 0.1384 -2.8297 -14.8737 -5.2836 -2.7234 32.7881 -2.5684 -2.0080 13.4458 0.0000 -0.0000 0.0000 -78.7161 19.6839 34.4356 140.2426 -47.9255 -101.7411 -0.0000 -0.0000 14.3968 -17.2009 11.4340 -3.5118 -7.1250 0.0000 -0.0000 -36.8794 38.5460 7.0539 0.0000 -0.0000 0.0000 71.7365 -12.4697 42.8868 -136.2057 50.1639 -98.6912 0.0000 0.0000 5.9611 21.4687 -11.6507 -4.5409 7.1250 -0.0000 -0.0000 39.9178 -38.2271 8.3381
-0.8745 14.9690 -4.0792 -3.5270 -20.6305 12.0414 0.0000 0.0000 0.0000 3.1724 -35.6573 -31.0019 4.5861 12.9020 39.0027 0.8511 25.4124 -40.0117 1.9164 8.6898 24.8296 0.0000 0.0000 0.0000 24.9850 8.2961 -9.3047 -3.4783 -11.4318 33.7503 -2.8321 -10.8886 -37.0245 -0.0058 -0.4901 1.3466 5.5717 -1.5397 -7.3854 1.6935 -2.3425 -6.9426 -1.4592 -1.3922 -3.2335 0.0732 -2.7738 -15.1426 -5.1374 -2.6668 33.3770 -2.5247 -1.9758 13.7687 -0.0000 0.0000 0.0000 -78.5211 19.2240 34.2193 140.5422 -47.7454 -101.9631 -0.0000 -0.0000 13.7570 -17.0228 11.3273 -3.4413 -7.1250 0.0000 -0.0000 -36.7045 38.4756 7.0848 -0.0000 0.0000 0.0000 71.7540 -12.0148 42.5536 -136.5420 49.9903 -98.9491 0.0000 0.0000 5.3524 21.2657 -11.5379 -4.4512 7.1250 -0.0000 -0.0000 39.7278 -38.1581 8.3645
-0.8784 14.9686 -4.0806 -3.5461 -20.6622 12.0505 0.0000 0.0000 0.0000 3.2129 -35.6627 -30.9911 4.5893 12.9059 39.0171 0.8741 25.3771 -40.0784 1.9266 8.7115 24.8971 0.0000 0.0000 0.0000 25.0112 8.2794 -9.3152 -3.4767 -11.4295 33.7423 -2.8318 -10.8596 -37.0053 -0.0057 -0.4867 1.3374 5.6046 -1.5366 -7.4112 1.6829 -2.3416 -6.9560 -1.4888 -1.3938 -3.2356 0.0177 -2.7049 -15.4280 -4.9866 -2.5970 34.0579 -2.4826 -1.9364 14.1428 0.0000 0.0000 0.0000 -78.3003 18.7349 33.9900 140.8332 -47.5685 -102.1782 -0.0000 -0.0000 13.0657 -16.8715 11.1961 -3.3701 -7.1250 0.0000 -0.0000 -36.5377 38.3811 7.1436 0.0000 0.0000 0.0000 71.7605 -11.5519 42.2157 -136.8855 49.8106 -99.2118 0.0000 0.0000 4.6717 21.0718 -11.4237 -4.3640 7.1250 -0.0000 -0.0000 39.5431 -38.0866 8.3950
-0.8823 14.9682 -4.0819 -3.5583 -20.6926 12.0556 0.0000 0.0000 0.0000 3.2409 -35.6516 -30.9805 4.5915 12.9084 39.0265 0.8914 25.3435 -40.1205 1.9339 8.7271 24.9454 0.0000 0.0000 0.0000 25.0309 8.2606 -9.3257 -3.4758 -11.4282 33.7378 -2.8324 -10.8298 -36.9898 -0.0056 -0.4849 1.3324 5.6325 -1.5320 -7.4371 1.6673 -2.3385 -6.9760 -1.5207 -1.3946 -3.2443 -0.0177 -2.6232 -15.7119 -4.8401 -2.5152 34.8080 -2.4461 -1.8899 14.5564 0.0000 -0.0000 0.0000 -78.0510 18.2203 33.7535 141.1243 -47.3895 -102.3928 -0.0000 -0.0000 12.3388 -16.7291 11.0395 -3.2940 -7.1250 0.0000 -0.0000 -36.3662 38.2640 7.2250 0.0000 -0.0000 0.0000 71.7617 -11.0724 41.8700 -137.2288 49.6287 -99.4737 0.0000 0.0000 3.9124 20.8622 -11.2835 -4.2646 7.1250 -0.0000 -0.0000 39.3355 -37.9950 8.4422
-0.8862 14.9678 -4.0832 -3.5643 -20.7200 12.0556 0.0000 0.0000 0.0000 3.2574 -35.6266 -30.9696 4.5929 12.9102 39.0331 0.9045 25.3072 -40.1401 1.9398 8.7395 24.9838 0.0000 0.0000 0.0000 25.0453 8.2386 -9.3338 -3.4753 -11.4274 33.7352 -2.8331 -10.8022 -36.9766 -0.0056 -0.4840 1.3298 5.6525 -1.5298 -7.4592 1.6507 -2.3377 -7.0016 -1.5490 -1.3965 -3.2609 -0.0388 -2.5253 -15.9657 -4.6910 -2.4182 35.5894 -2.4083 -1.8343 14.9883 -0.0000 -0.0000 0.0000 -77.7796 17.6711 33.5090 141.4081 -47.2132 -102.6013 -0.0000 -0.0000 11.5928 -16.5374 10.8702 -3.2050 -7.1250 0.0000 -0.0000 -36.1544 38.1413 7.2996 -0.0000 -0.0000 0.0000 71.7476 -10.5640 41.5236 -137.5719 49.4445 -99.7348 0.0000 0.0000 3.0755 20.6108 -11.0909 -4.1380 7.1250 -0.0000 -0.0000 39.0753 -37.8641 8.5194
-0.8901 14.9675 -4.0845 -3.5687 -20.7469 12.0507 0.0000 0.0000 0.0000 3.2651 -35.5820 -30.9573 4.5939 12.9113 39.0374 0.9150 25.2627 -40.1378 1.9448 8.7502 25.0170 0.0000 0.0000 0.0000 25.0593 8.2160 -9.3367 -3.4750 -11.4269 33.7336 -2.8342 -10.7750 -36.9652 -0.0056 -0.4847 1.3318 5.6678 -1.5300 -7.4759 1.6344 -2.3393 -7.0332 -1.5740 -1.3997 -3.2868 -0.0369 -2.4077 -16.1718 -4.5453 -2.3011 36.3782 -2.3705 -1.7674 15.4242 0.0000 0.0000 0.0000 -77.4842 17.0883 33.2578 141.6857 -47.0389 -102.8048 -0.0000 -0.0000 10.8454 -16.2610 10.6790 -3.0938 -7.1250 0.0000 -0.0000 -35.8733 38.0084 7.3633 0.0000 0.0000 0.0000 71.7155 -10.0257 41.1858 -137.9171 49.2566 -99.9967 0.0000 0.0000 2.1788 20.2470 -10.7955 -3.9522 7.1250 -0.0000 -0.0000 38.6918 -37.6596 8.6426
-0.8940 14.9671 -4.0860 -3.5724 -20.7713 12.0408 0.0000 0.0000 0.0000 3.2644 -35.5116 -30.9468 4.5947 12.9123 39.0410 0.9183 25.2156 -40.0994 1.9468 8.7544 25.0299 0.0000 0.0000 0.0000 25.0749 8.1940 -9.3333 -3.4746 -11.4263 33.7315 -2.8352 -10.7514 -36.9561 -0.0057 -0.4873 1.3390 5.6800 -1.5337 -7.4898 1.6183 -2.3452 -7.0667 -1.5972 -1.4051 -3.3162 -0.0017 -2.2673 -16.3274 -4.4117 -2.1594 37.1548 -2.3364 -1.6870 15.8538 -0.0000 0.0000 0.0000 -77.1634 16.4689 32.9954 141.9604 -46.8646 -103.0055 -0.0000 -0.0000 10.1048 -15.8979 10.4832 -2.9665 -7.1250 0.0000 -0.0000 -35.5287 37.8801 7.4011 -0.0000 0.0000 0.0000 71.6677 -9.4437 40.8657 -138.2574 49.0691 -100.2541 0.0000 0.0000 1.2554 19.7139 -10.3600 -3.6870 7.1250 -0.0000 -0.0000 38.1312 -37.3557 8.8184
-0.8978 14.9668 -4.0875 -3.5766 -20.7936 12.0237 0.0000 0.0000 0.0000 3.2532 -35.4116 -30.9359 4.5955 12.9133 39.0448 0.9148 25.1630 -40.0231 1.9454 8.7514 25.0208 0.0000 0.0000 0.0000 25.0925 8.1679 -9.3214 -3.4738 -11.4252 33.7277 -2.8364 -10.7287 -36.9479 -0.0058 -0.4917 1.3512 5.6919 -1.5409 -7.5046 1.6014 -2.3559 -7.0952 -1.6214 -1.4127 -3.3403 0.0772 -2.1025 -16.4333 -4.2986 -1.9899 37.9001 -2.3101 -1.5914 16.2670 0.0000 -0.0000 0.0000 -76.8094 15.7930 32.7252 142.2237 -46.6958 -103.1974 -0.0000 -0.0000 9.3978 -15.3958 10.2776 -2.8127 -7.1250 0.0000 -0.0000 -35.0805 37.7569 7.4005 0.0000 -0.0000 0.0000 71.6038 -8.8083 40.5747 -138.5951 48.8806 -100.5089 0.0000 0.0000 0.3357 18.9487 -9.7751 -3.3360 7.1250 -0.0000 -0.0000 37.3494 -36.9486 9.0236
-0.9016 14.9665 -4.0893 -3.5829 -20.8138 12.0016 0.0000 0.0000 0.0000 3.2337 -35.2720 -30.9312 4.5966 12.9146 39.0497 0.9006 25.1085 -39.8944 1.9385 8.7368 24.9754 0.0000 0.0000 0.0000 25.1135 8.1387 -9.3036 -3.4725 -11.4233 33.7210 -2.8367 -10.7087 -36.9376 -0.0059 -0.4941 1.3578 5.7055 -1.5505 -7.5224 1.5852 -2.3703 -7.1210 -1.6461 -1.4220 -3.3604 0.2037 -1.9113 -16.4719 -4.2153 -1.7861 38.5874 -2.2936 -1.4786 16.6441 -0.0000 0.0000 0.0000 -76.4242 15.0678 32.4418 142.4802 -46.5299 -103.3838 -0.0000 -0.0000 8.7279 -14.7905 10.0660 -2.6422 -7.1250 0.0000 -0.0000 -34.5551 37.6376 7.3704 -0.0000 0.0000 0.0000 71.5177 -8.1252 40.3346 -138.9280 48.6924 -100.7593 0.0000 -0.0000 -0.5465 17.8469 -9.0311 -2.8932 7.1250 -0.0000 -0.0000 36.2740 -36.4371 9.2161
-0.9054 14.9662 -4.0912 -3.5890 -20.8340 11.9720 0.0000 0.0000 0.0000 3.2034 -35.0961 -30.9298 4.5980 12.9162 39.0557 0.8762 25.0547 -39.7178 1.9259 8.7099 24.8921 0.0000 0.0000 0.0000 25.1354 8.1073 -9.2778 -3.4706 -11.4204 33.7113 -2.8357 -10.6940 -36.9232 -0.0058 -0.4932 1.3553 5.7184 -1.5602 -7.5420 1.5680 -2.3851 -7.1377 -1.6718 -1.4311 -3.3697 0.3827 -1.6961 -16.4394 -4.1684 -1.5486 39.1825 -2.2895 -1.3490 16.9633 0.0000 -0.0000 0.0000 -76.0034 14.2818 32.1510 142.7266 -46.3689 -103.5624 -0.0000 -0.0000 8.1290 -14.0476 9.8108 -2.4413 -7.1250 0.0000 -0.0000 -33.9112 37.4928 7.3283 0.0000 -0.0000 0.0000 71.4101 -7.3854 40.1517 -139.2595 48.5026 -101.0080 0.0000 -0.0000 -1.3890 16.3394 -8.1336 -2.3751 7.1250 -0.0000 -0.0000 34.8619 -35.8249 9.3525
-0.9090 14.9659 -4.0934 -3.5993 -20.8516 11.9384 0.0000 0.0000 0.0000 3.1676 -34.8771 -30.9375 4.5996 12.9182 39.0631 0.8400 24.9999 -39.4831 1.9072 8.6700 24.7683 0.0000 0.0000 0.0000 25.1620 8.0717 -9.2472 -3.4680 -11.4166 33.6982 -2.8334 -10.6814 -36.9038 -0.0057 -0.4892 1.3442 5.7337 -1.5695 -7.5625 1.5522 -2.3999 -7.1437 -1.6977 -1.4397 -3.3674 0.6193 -1.4565 -16.3281 -4.1695 -1.2718 39.6488 -2.3016 -1.2009 17.1990 0.0000 -0.0000 0.0000 -75.5497 13.4279 31.8465 142.9591 -46.2157 -103.7305 -0.0000 -0.0000 7.6037 -13.1692 9.5107 -2.2140 -7.1250 0.0000 -0.0000 -33.1490 37.3192 7.2752 0.0000 -0.0000 0.0000 71.2774 -6.5843 40.0376 -139.5908 48.3105 -101.2558 0.0000 -0.0000 -2.1966 14.4071 -7.1196 -1.8236 7.1250 -0.0000 -0.0000 33.1147 -35.1341 9.3856
